<?xml version="1.0" encoding="UTF-8"?>
<svg xmlns="http://www.w3.org/2000/svg" xmlns:xlink="http://www.w3.org/1999/xlink" width="32pt" height="32pt" viewBox="0 0 32 32" version="1.1">
<g id="surface1">
<path style=" stroke:none;fill-rule:evenodd;fill:rgb(16.470588%,64.705882%,82.352941%);fill-opacity:1;" d="M 3.058594 0 L 28.855469 0 C 30.542969 0 31.914062 1.371094 31.914062 3.058594 L 31.914062 28.855469 C 31.914062 30.542969 30.542969 31.914062 28.855469 31.914062 L 3.058594 31.914062 C 1.371094 31.914062 0 30.542969 0 28.855469 L 0 3.058594 C 0 1.371094 1.371094 0 3.058594 0 Z M 3.058594 0 "/>
<path style=" stroke:none;fill-rule:evenodd;fill:rgb(99.607843%,99.607843%,99.607843%);fill-opacity:1;" d="M 10.710938 14.425781 L 6.996094 14.425781 L 6.996094 11.585938 L 10.710938 11.585938 C 11.585938 11.585938 12.242188 12.242188 12.242188 13.117188 C 12.242188 13.773438 11.585938 14.425781 10.710938 14.425781 Z M 15.957031 19.019531 C 15.957031 17.269531 14.863281 15.957031 13.554688 15.519531 C 14.425781 14.863281 15.300781 13.554688 15.300781 12.242188 C 15.300781 10.273438 13.554688 8.523438 11.585938 8.523438 L 4.152344 8.523438 L 4.152344 23.390625 L 11.585938 23.390625 C 13.988281 23.390625 15.957031 21.421875 15.957031 19.019531 Z M 19.671875 18.144531 L 27.980469 18.144531 C 27.980469 18.144531 27.980469 17.925781 27.980469 17.925781 C 27.980469 14.863281 25.574219 12.242188 22.296875 12.242188 C 19.019531 12.242188 16.832031 14.863281 16.832031 17.925781 C 16.832031 20.984375 19.019531 23.390625 22.296875 23.390625 C 25.574219 23.390625 27.324219 21.421875 27.761719 19.019531 L 24.703125 19.019531 C 24.484375 20.328125 23.609375 21.203125 22.296875 21.203125 C 20.984375 21.203125 19.890625 19.890625 19.671875 18.144531 Z M 24.703125 16.832031 L 19.890625 16.832031 C 20.109375 15.300781 20.984375 14.425781 22.296875 14.425781 C 23.609375 14.425781 24.484375 15.519531 24.703125 16.832031 Z M 19.019531 9.398438 L 25.574219 9.398438 L 25.574219 11.585938 L 19.019531 11.585938 Z M 6.996094 16.832031 L 10.710938 16.832031 C 11.585938 16.832031 13.117188 17.050781 13.117188 18.582031 C 13.117188 19.453125 12.460938 20.546875 11.585938 20.546875 L 6.996094 20.546875 Z M 6.996094 16.832031 "/>
</g>
</svg>
