<?xml version="1.0" encoding="UTF-8"?>
<svg xmlns="http://www.w3.org/2000/svg" xmlns:xlink="http://www.w3.org/1999/xlink" width="32pt" height="32pt" viewBox="0 0 32 32" version="1.1">
<defs>
<linearGradient id="linear0" gradientUnits="userSpaceOnUse" x1="-0.00000185441" y1="256" x2="512" y2="256" gradientTransform="matrix(0,-0.0625,-0.0625,0,31.999735,31.999239)">
<stop offset="0" style="stop-color:rgb(4.705882%,50.196078%,69.411765%);stop-opacity:1;"/>
<stop offset="1" style="stop-color:rgb(6.666667%,65.490196%,87.45098%);stop-opacity:1;"/>
</linearGradient>
</defs>
<g id="surface1">
<path style=" stroke:none;fill-rule:nonzero;fill:url(#linear0);" d="M 4.570312 0 C 2.046875 0 0 2.046875 0 4.570312 L 0 27.429688 C 0 29.953125 2.046875 32 4.570312 32 L 27.425781 32 C 29.953125 32 32 29.953125 32 27.429688 L 32 4.570312 C 32 2.046875 29.953125 0 27.429688 0 Z M 4.570312 0 "/>
<path style=" stroke:none;fill-rule:nonzero;fill:rgb(100%,100%,100%);fill-opacity:1;" d="M 17.328125 14.394531 L 17.328125 14.347656 C 17.316406 14.363281 17.304688 14.378906 17.296875 14.394531 Z M 10.003906 26.511719 L 5.253906 26.511719 L 5.253906 12.324219 L 10.003906 12.324219 Z M 7.632812 10.386719 L 7.601562 10.386719 C 6.019531 10.386719 4.996094 9.300781 4.996094 7.9375 C 4.996094 6.546875 6.050781 5.488281 7.664062 5.488281 C 9.28125 5.488281 10.273438 6.542969 10.304688 7.9375 C 10.304688 9.300781 9.28125 10.386719 7.632812 10.386719 Z M 27.003906 26.511719 L 22.316406 26.511719 L 22.316406 18.9375 C 22.316406 17.03125 21.625 15.730469 19.914062 15.730469 C 18.609375 15.730469 17.824219 16.605469 17.484375 17.453125 C 17.359375 17.757812 17.316406 18.179688 17.316406 18.605469 L 17.316406 26.511719 L 12.605469 26.511719 C 12.605469 26.511719 12.667969 13.636719 12.605469 12.324219 L 17.316406 12.324219 L 17.316406 14.347656 C 17.941406 13.378906 19.066406 12 21.570312 12 C 24.675781 12 27.003906 14.03125 27.003906 18.394531 Z M 27.003906 26.511719 "/>
</g>
</svg>
