<?xml version="1.0" encoding="UTF-8"?>
<svg xmlns="http://www.w3.org/2000/svg" xmlns:xlink="http://www.w3.org/1999/xlink" width="32pt" height="32pt" viewBox="0 0 32 32" version="1.1">
<g id="surface1">
<path style=" stroke:none;fill-rule:evenodd;fill:rgb(30.588235%,74.509804%,92.941176%);fill-opacity:1;" d="M 3.074219 0 L 28.839844 0 C 30.539062 0 31.914062 1.375 31.914062 3.074219 L 31.914062 28.839844 C 31.914062 30.539062 30.539062 31.914062 28.839844 31.914062 L 3.074219 31.914062 C 1.375 31.914062 0 30.539062 0 28.839844 L 0 3.074219 C 0 1.375 1.375 0 3.074219 0 Z M 3.074219 0 "/>
<path style=" stroke:none;fill-rule:evenodd;fill:rgb(99.607843%,99.607843%,99.607843%);fill-opacity:1;" d="M 26.015625 9.808594 C 25.265625 10.140625 24.433594 10.304688 23.605469 10.472656 C 24.519531 9.890625 25.183594 9.140625 25.433594 8.144531 C 24.683594 8.644531 23.769531 8.976562 22.855469 9.140625 C 22.109375 8.394531 21.027344 7.894531 19.78125 7.894531 C 17.535156 7.894531 15.707031 9.722656 15.707031 11.96875 C 15.707031 12.300781 15.707031 12.550781 15.792969 12.882812 C 12.382812 12.714844 9.308594 11.054688 7.3125 8.644531 C 6.898438 9.226562 6.730469 9.890625 6.730469 10.636719 C 6.730469 12.050781 7.480469 13.296875 8.558594 14.046875 C 7.894531 14.046875 7.230469 13.878906 6.648438 13.546875 C 6.648438 13.546875 6.648438 13.546875 6.648438 13.628906 C 6.648438 14.128906 6.816406 14.628906 6.980469 15.042969 C 7.480469 16.375 8.644531 17.289062 9.972656 17.621094 C 9.640625 17.703125 9.308594 17.703125 8.894531 17.703125 C 8.644531 17.703125 8.394531 17.703125 8.144531 17.621094 C 8.644531 19.28125 10.222656 20.445312 11.96875 20.445312 C 10.554688 21.609375 8.808594 22.191406 6.898438 22.191406 C 6.484375 22.191406 6.234375 22.191406 5.902344 22.191406 C 7.730469 23.355469 9.890625 24.019531 12.21875 24.019531 C 18.699219 24.019531 22.605469 19.53125 23.6875 14.878906 C 23.851562 14.046875 23.9375 13.214844 23.9375 12.382812 C 23.9375 12.21875 23.9375 12.050781 23.9375 11.886719 C 24.765625 11.304688 25.433594 10.636719 26.015625 9.808594 Z M 26.015625 9.808594 "/>
</g>
</svg>
